<svg width="30" height="30" viewBox="0 0 30 30" fill="none" xmlns="http://www.w3.org/2000/svg">
<path d="M3.74998 5.62488C3.58434 5.62254 3.41989 5.65314 3.26618 5.71491C3.11247 5.77667 2.97257 5.86838 2.8546 5.98468C2.73664 6.10099 2.64297 6.23958 2.57904 6.3924C2.5151 6.54522 2.48218 6.70922 2.48218 6.87488C2.48218 7.04054 2.5151 7.20454 2.57904 7.35736C2.64297 7.51018 2.73664 7.64878 2.8546 7.76508C2.97257 7.88139 3.11247 7.97309 3.26618 8.03485C3.41989 8.09662 3.58434 8.12722 3.74998 8.12488H26.25C26.4156 8.12722 26.5801 8.09662 26.7338 8.03485C26.8875 7.97309 27.0274 7.88139 27.1454 7.76508C27.2633 7.64878 27.357 7.51018 27.4209 7.35736C27.4849 7.20454 27.5178 7.04054 27.5178 6.87488C27.5178 6.70922 27.4849 6.54522 27.4209 6.3924C27.357 6.23958 27.2633 6.10099 27.1454 5.98468C27.0274 5.86838 26.8875 5.77667 26.7338 5.71491C26.5801 5.65314 26.4156 5.62254 26.25 5.62488H3.74998ZM3.74998 13.7499C3.58434 13.7475 3.41989 13.7781 3.26618 13.8399C3.11247 13.9017 2.97257 13.9934 2.8546 14.1097C2.73664 14.226 2.64297 14.3646 2.57904 14.5174C2.5151 14.6702 2.48218 14.8342 2.48218 14.9999C2.48218 15.1655 2.5151 15.3295 2.57904 15.4824C2.64297 15.6352 2.73664 15.7738 2.8546 15.8901C2.97257 16.0064 3.11247 16.0981 3.26618 16.1599C3.41989 16.2216 3.58434 16.2522 3.74998 16.2499H26.25C26.4156 16.2522 26.5801 16.2216 26.7338 16.1599C26.8875 16.0981 27.0274 16.0064 27.1454 15.8901C27.2633 15.7738 27.357 15.6352 27.4209 15.4824C27.4849 15.3295 27.5178 15.1655 27.5178 14.9999C27.5178 14.8342 27.4849 14.6702 27.4209 14.5174C27.357 14.3646 27.2633 14.226 27.1454 14.1097C27.0274 13.9934 26.8875 13.9017 26.7338 13.8399C26.5801 13.7781 26.4156 13.7475 26.25 13.7499H3.74998ZM3.74998 21.8749C3.58434 21.8725 3.41989 21.9031 3.26618 21.9649C3.11247 22.0267 2.97257 22.1184 2.8546 22.2347C2.73664 22.351 2.64297 22.4896 2.57904 22.6424C2.5151 22.7952 2.48218 22.9592 2.48218 23.1249C2.48218 23.2905 2.5151 23.4545 2.57904 23.6074C2.64297 23.7602 2.73664 23.8988 2.8546 24.0151C2.97257 24.1314 3.11247 24.2231 3.26618 24.2849C3.41989 24.3466 3.58434 24.3772 3.74998 24.3749H26.25C26.4156 24.3772 26.5801 24.3466 26.7338 24.2849C26.8875 24.2231 27.0274 24.1314 27.1454 24.0151C27.2633 23.8988 27.357 23.7602 27.4209 23.6074C27.4849 23.4545 27.5178 23.2905 27.5178 23.1249C27.5178 22.9592 27.4849 22.7952 27.4209 22.6424C27.357 22.4896 27.2633 22.351 27.1454 22.2347C27.0274 22.1184 26.8875 22.0267 26.7338 21.9649C26.5801 21.9031 26.4156 21.8725 26.25 21.8749H3.74998Z" fill="black"/>
<path d="M3.74998 5.62488C3.58434 5.62254 3.41989 5.65314 3.26618 5.71491C3.11247 5.77667 2.97257 5.86838 2.8546 5.98468C2.73664 6.10099 2.64297 6.23958 2.57904 6.3924C2.5151 6.54522 2.48218 6.70922 2.48218 6.87488C2.48218 7.04054 2.5151 7.20454 2.57904 7.35736C2.64297 7.51018 2.73664 7.64878 2.8546 7.76508C2.97257 7.88139 3.11247 7.97309 3.26618 8.03485C3.41989 8.09662 3.58434 8.12722 3.74998 8.12488H26.25C26.4156 8.12722 26.5801 8.09662 26.7338 8.03485C26.8875 7.97309 27.0274 7.88139 27.1454 7.76508C27.2633 7.64878 27.357 7.51018 27.4209 7.35736C27.4849 7.20454 27.5178 7.04054 27.5178 6.87488C27.5178 6.70922 27.4849 6.54522 27.4209 6.3924C27.357 6.23958 27.2633 6.10099 27.1454 5.98468C27.0274 5.86838 26.8875 5.77667 26.7338 5.71491C26.5801 5.65314 26.4156 5.62254 26.25 5.62488H3.74998ZM3.74998 13.7499C3.58434 13.7475 3.41989 13.7781 3.26618 13.8399C3.11247 13.9017 2.97257 13.9934 2.8546 14.1097C2.73664 14.226 2.64297 14.3646 2.57904 14.5174C2.5151 14.6702 2.48218 14.8342 2.48218 14.9999C2.48218 15.1655 2.5151 15.3295 2.57904 15.4824C2.64297 15.6352 2.73664 15.7738 2.8546 15.8901C2.97257 16.0064 3.11247 16.0981 3.26618 16.1599C3.41989 16.2216 3.58434 16.2522 3.74998 16.2499H26.25C26.4156 16.2522 26.5801 16.2216 26.7338 16.1599C26.8875 16.0981 27.0274 16.0064 27.1454 15.8901C27.2633 15.7738 27.357 15.6352 27.4209 15.4824C27.4849 15.3295 27.5178 15.1655 27.5178 14.9999C27.5178 14.8342 27.4849 14.6702 27.4209 14.5174C27.357 14.3646 27.2633 14.226 27.1454 14.1097C27.0274 13.9934 26.8875 13.9017 26.7338 13.8399C26.5801 13.7781 26.4156 13.7475 26.25 13.7499H3.74998ZM3.74998 21.8749C3.58434 21.8725 3.41989 21.9031 3.26618 21.9649C3.11247 22.0267 2.97257 22.1184 2.8546 22.2347C2.73664 22.351 2.64297 22.4896 2.57904 22.6424C2.5151 22.7952 2.48218 22.9592 2.48218 23.1249C2.48218 23.2905 2.5151 23.4545 2.57904 23.6074C2.64297 23.7602 2.73664 23.8988 2.8546 24.0151C2.97257 24.1314 3.11247 24.2231 3.26618 24.2849C3.41989 24.3466 3.58434 24.3772 3.74998 24.3749H26.25C26.4156 24.3772 26.5801 24.3466 26.7338 24.2849C26.8875 24.2231 27.0274 24.1314 27.1454 24.0151C27.2633 23.8988 27.357 23.7602 27.4209 23.6074C27.4849 23.4545 27.5178 23.2905 27.5178 23.1249C27.5178 22.9592 27.4849 22.7952 27.4209 22.6424C27.357 22.4896 27.2633 22.351 27.1454 22.2347C27.0274 22.1184 26.8875 22.0267 26.7338 21.9649C26.5801 21.9031 26.4156 21.8725 26.25 21.8749H3.74998Z" fill="#F4C361"/>
</svg>
