<svg width="30" height="30" viewBox="0 0 30 30" fill="none" xmlns="http://www.w3.org/2000/svg">
<path d="M24.3641 4.35679C24.0337 4.36459 23.7199 4.50284 23.4913 4.74132L15 13.2325L6.50883 4.74132C6.3922 4.62143 6.2527 4.52616 6.09859 4.46116C5.94447 4.39616 5.77888 4.36274 5.61162 4.3629C5.36306 4.36321 5.12023 4.4376 4.91415 4.57659C4.70808 4.71557 4.54812 4.91284 4.4547 5.14318C4.36128 5.37351 4.33864 5.62647 4.38968 5.86974C4.44073 6.113 4.56313 6.33553 4.74126 6.50889L13.2325 15.0001L4.74126 23.4913C4.62129 23.6065 4.52551 23.7445 4.45953 23.8971C4.39355 24.0498 4.35869 24.2141 4.357 24.3804C4.35531 24.5467 4.38681 24.7116 4.44967 24.8656C4.51254 25.0196 4.60549 25.1595 4.72309 25.2771C4.84069 25.3947 4.98057 25.4876 5.13454 25.5505C5.28851 25.6133 5.45348 25.6448 5.61978 25.6432C5.78608 25.6415 5.95037 25.6066 6.10303 25.5406C6.25569 25.4746 6.39365 25.3789 6.50883 25.2589L15 16.7677L23.4913 25.2589C23.6064 25.3789 23.7444 25.4746 23.8971 25.5406C24.0497 25.6066 24.214 25.6415 24.3803 25.6432C24.5466 25.6449 24.7116 25.6133 24.8656 25.5505C25.0195 25.4876 25.1594 25.3947 25.277 25.2771C25.3946 25.1595 25.4876 25.0196 25.5504 24.8656C25.6133 24.7116 25.6448 24.5467 25.6431 24.3804C25.6414 24.2141 25.6065 24.0498 25.5406 23.8971C25.4746 23.7445 25.3788 23.6065 25.2588 23.4913L16.7676 15.0001L25.2588 6.50889C25.4407 6.33448 25.5657 6.10916 25.6173 5.8625C25.6688 5.61583 25.6447 5.35933 25.5479 5.12664C25.4512 4.89394 25.2864 4.69592 25.0751 4.55854C24.8638 4.42116 24.616 4.35084 24.3641 4.35679Z" fill="black"/>
<path d="M24.3641 4.35679C24.0337 4.36459 23.7199 4.50284 23.4913 4.74132L15 13.2325L6.50883 4.74132C6.3922 4.62143 6.2527 4.52616 6.09859 4.46116C5.94447 4.39616 5.77888 4.36274 5.61162 4.3629C5.36306 4.36321 5.12023 4.4376 4.91415 4.57659C4.70808 4.71557 4.54812 4.91284 4.4547 5.14318C4.36128 5.37351 4.33864 5.62647 4.38968 5.86974C4.44073 6.113 4.56313 6.33553 4.74126 6.50889L13.2325 15.0001L4.74126 23.4913C4.62129 23.6065 4.52551 23.7445 4.45953 23.8971C4.39355 24.0498 4.35869 24.2141 4.357 24.3804C4.35531 24.5467 4.38681 24.7116 4.44967 24.8656C4.51254 25.0196 4.60549 25.1595 4.72309 25.2771C4.84069 25.3947 4.98057 25.4876 5.13454 25.5505C5.28851 25.6133 5.45348 25.6448 5.61978 25.6432C5.78608 25.6415 5.95037 25.6066 6.10303 25.5406C6.25569 25.4746 6.39365 25.3789 6.50883 25.2589L15 16.7677L23.4913 25.2589C23.6064 25.3789 23.7444 25.4746 23.8971 25.5406C24.0497 25.6066 24.214 25.6415 24.3803 25.6432C24.5466 25.6449 24.7116 25.6133 24.8656 25.5505C25.0195 25.4876 25.1594 25.3947 25.277 25.2771C25.3946 25.1595 25.4876 25.0196 25.5504 24.8656C25.6133 24.7116 25.6448 24.5467 25.6431 24.3804C25.6414 24.2141 25.6065 24.0498 25.5406 23.8971C25.4746 23.7445 25.3788 23.6065 25.2588 23.4913L16.7676 15.0001L25.2588 6.50889C25.4407 6.33448 25.5657 6.10916 25.6173 5.8625C25.6688 5.61583 25.6447 5.35933 25.5479 5.12664C25.4512 4.89394 25.2864 4.69592 25.0751 4.55854C24.8638 4.42116 24.616 4.35084 24.3641 4.35679Z" fill="#F4C361"/>
</svg>
