<svg width="40" height="33" viewBox="0 0 40 33" fill="none" xmlns="http://www.w3.org/2000/svg">
<path d="M21.9944 24.658L22.5031 24.8014L22.7587 24.3387C23.6293 22.7628 25.3054 21.6965 27.2237 21.6965C30.0336 21.6965 32.3209 23.9841 32.3209 26.7941C32.3209 29.6043 30.0336 31.8915 27.2237 31.8915C24.4138 31.8915 22.1265 29.6043 22.1265 26.7941C22.1265 26.6367 22.1348 26.4789 22.1494 26.3192L22.2006 25.7598L21.658 25.6145C21.2423 25.5032 20.6765 25.405 19.9675 25.405C19.2997 25.405 18.7575 25.4921 18.3486 25.5958L17.7943 25.7363L17.8489 26.3055C17.8643 26.4674 17.8727 26.6301 17.8727 26.7941C17.8727 29.6043 15.5857 31.8912 12.7755 31.8912C9.96561 31.8912 7.67834 29.6042 7.67834 26.7941C7.67834 23.9838 9.96561 21.6965 12.7755 21.6965C14.6884 21.6965 16.3601 22.7569 17.2326 24.3251L17.4864 24.7815L17.9903 24.6443C18.4854 24.5095 19.1467 24.3943 19.9675 24.3943C20.8161 24.3943 21.4947 24.5172 21.9944 24.658Z" stroke="white" stroke-width="2"/>
<path d="M36.8997 13.6232H33.0675C32.9827 13.1486 32.8719 12.5304 32.7481 11.8428H7.25187C7.128 12.5304 7.0172 13.1486 6.93233 13.6232H3.10027C1.39099 13.6232 0 15.0139 0 16.7234V16.75C0 18.4596 1.39099 19.8503 3.10027 19.8503H36.8997C38.6093 19.8503 39.9999 18.4596 39.9999 16.75V16.7234C39.9999 15.0139 38.6089 13.6232 36.8997 13.6232Z" fill="#F4C361"/>
<path d="M31.7135 6.20533C31.2026 3.53199 30.6289 1.78333 29.2083 0.757332C27.654 -0.365714 25.2355 -0.224414 23.7026 1.07929C23.6071 1.16047 23.5082 1.24592 23.4063 1.33411C22.4602 2.15137 21.2832 3.16819 19.9996 3.16819C18.7161 3.16819 17.539 2.15137 16.593 1.33411C16.491 1.24592 16.3922 1.16047 16.2966 1.07929C14.7638 -0.224414 12.3456 -0.365714 10.791 0.757332C9.37038 1.78333 8.79665 3.53199 8.28578 6.20533C8.11952 7.07599 7.89825 8.27746 7.67578 9.49906H32.3235C32.101 8.27746 31.8798 7.07599 31.7135 6.20533Z" fill="#F4C361"/>
</svg>
