<svg width="30" height="30" viewBox="0 0 30 30" fill="none" xmlns="http://www.w3.org/2000/svg">
<path d="M15.0007 19.1666C12.7032 19.1666 10.834 17.2974 10.834 14.9999C10.834 12.7024 12.7032 10.8333 15.0007 10.8333C17.2982 10.8333 19.1673 12.7024 19.1673 14.9999C19.1673 17.2974 17.2982 19.1666 15.0007 19.1666ZM25.0007 19.1666C22.7031 19.1666 20.834 17.2974 20.834 14.9999C20.834 12.7024 22.7031 10.8333 25.0007 10.8333C27.2982 10.8333 29.1673 12.7024 29.1673 14.9999C29.1673 17.2974 27.2982 19.1666 25.0007 19.1666ZM5.00065 19.1666C2.70315 19.1666 0.833984 17.2974 0.833984 14.9999C0.833984 12.7024 2.70315 10.8333 5.00065 10.8333C7.29815 10.8333 9.16732 12.7024 9.16732 14.9999C9.16732 17.2974 7.29815 19.1666 5.00065 19.1666ZM15.0007 9.18992C12.7032 9.18992 10.834 7.32075 10.834 5.02325C10.834 2.72575 12.7032 0.856585 15.0007 0.856585C17.2982 0.856585 19.1673 2.72575 19.1673 5.02325C19.1673 7.32075 17.2982 9.18992 15.0007 9.18992ZM25.0007 9.16658C22.7031 9.16658 20.834 7.29742 20.834 4.99992C20.834 2.70242 22.7031 0.833252 25.0007 0.833252C27.2982 0.833252 29.1673 2.70242 29.1673 4.99992C29.1673 7.29742 27.2982 9.16658 25.0007 9.16658ZM5.00065 9.16658C2.70315 9.16658 0.833984 7.29742 0.833984 4.99992C0.833984 2.70242 2.70315 0.833252 5.00065 0.833252C7.29815 0.833252 9.16732 2.70242 9.16732 4.99992C9.16732 7.29742 7.29815 9.16658 5.00065 9.16658ZM15.0007 29.1899C12.7032 29.1899 10.834 27.3207 10.834 25.0232C10.834 22.7257 12.7032 20.8566 15.0007 20.8566C17.2982 20.8566 19.1673 22.7257 19.1673 25.0232C19.1673 27.3207 17.2982 29.1899 15.0007 29.1899ZM25.0007 29.1666C22.7031 29.1666 20.834 27.2974 20.834 24.9999C20.834 22.7024 22.7031 20.8333 25.0007 20.8333C27.2982 20.8333 29.1673 22.7024 29.1673 24.9999C29.1673 27.2974 27.2982 29.1666 25.0007 29.1666ZM5.00065 29.1666C2.70315 29.1666 0.833984 27.2974 0.833984 24.9999C0.833984 22.7024 2.70315 20.8333 5.00065 20.8333C7.29815 20.8333 9.16732 22.7024 9.16732 24.9999C9.16732 27.2974 7.29815 29.1666 5.00065 29.1666Z" fill="#F4C361"/>
</svg>
