<svg width="214" height="40" viewBox="0 0 214 40" fill="none" xmlns="http://www.w3.org/2000/svg">
<path d="M21.9944 28.4082L22.5031 28.5516L22.7587 28.0889C23.6293 26.513 25.3054 25.4468 27.2237 25.4468C30.0336 25.4468 32.3209 27.7343 32.3209 30.5443C32.3209 33.3545 30.0336 35.6418 27.2237 35.6418C24.4138 35.6418 22.1265 33.3545 22.1265 30.5443C22.1265 30.3869 22.1348 30.2292 22.1494 30.0694L22.2006 29.51L21.658 29.3647C21.2423 29.2534 20.6765 29.1552 19.9675 29.1552C19.2997 29.1552 18.7575 29.2423 18.3486 29.346L17.7943 29.4866L17.8489 30.0558C17.8643 30.2176 17.8727 30.3804 17.8727 30.5443C17.8727 33.3545 15.5857 35.6414 12.7755 35.6414C9.96561 35.6414 7.67834 33.3544 7.67834 30.5443C7.67834 27.734 9.96561 25.4468 12.7755 25.4468C14.6884 25.4468 16.3601 26.5071 17.2326 28.0754L17.4864 28.5318L17.9903 28.3946C18.4854 28.2598 19.1467 28.1446 19.9675 28.1446C20.8161 28.1446 21.4947 28.2674 21.9944 28.4082Z" stroke="white" stroke-width="2"/>
<path d="M36.8997 17.3734H33.0675C32.9827 16.8989 32.8719 16.2806 32.7481 15.593H7.25187C7.128 16.2806 7.0172 16.8989 6.93233 17.3734H3.10027C1.39099 17.3734 0 18.7642 0 20.4737V20.5003C0 22.2099 1.39099 23.6006 3.10027 23.6006H36.8997C38.6093 23.6006 39.9999 22.2099 39.9999 20.5003V20.4737C39.9999 18.7642 38.6089 17.3734 36.8997 17.3734Z" fill="#F4C361"/>
<path d="M31.7135 9.95557C31.2026 7.28224 30.6289 5.53358 29.2083 4.50758C27.654 3.38453 25.2355 3.52583 23.7026 4.82954C23.6071 4.91072 23.5082 4.99616 23.4063 5.08436C22.4602 5.90162 21.2832 6.91844 19.9996 6.91844C18.7161 6.91844 17.539 5.90162 16.593 5.08436C16.491 4.99616 16.3922 4.91072 16.2966 4.82954C14.7638 3.52583 12.3456 3.38453 10.791 4.50758C9.37038 5.53358 8.79665 7.28224 8.28578 9.95557C8.11952 10.8262 7.89825 12.0277 7.67578 13.2493H32.3235C32.101 12.0277 31.8798 10.8262 31.7135 9.95557Z" fill="#F4C361"/>
<path d="M55.2 28.3333V11.7666H61.08C62.8688 11.7666 64.3621 12.1399 65.5599 12.8866C66.7579 13.6177 67.6519 14.6133 68.2433 15.8733C68.8499 17.1177 69.1533 18.5021 69.1533 20.0266C69.1533 21.7066 68.8186 23.1688 68.1499 24.4133C67.4966 25.6577 66.5633 26.6221 65.35 27.3066C64.1366 27.9911 62.7133 28.3333 61.08 28.3333H55.2ZM66.4933 20.0266C66.4933 18.8599 66.2755 17.8333 65.84 16.9466C65.42 16.0444 64.8055 15.3444 63.9966 14.8466C63.2033 14.3333 62.2311 14.0766 61.08 14.0766H57.8133V26.0233H61.08C62.2466 26.0233 63.2266 25.7588 64.0199 25.2299C64.8288 24.7011 65.4433 23.9855 65.8633 23.0833C66.2833 22.1811 66.4933 21.1621 66.4933 20.0266ZM71.9026 28.3333V11.7666H79.1126C79.8593 11.7666 80.5433 11.9221 81.166 12.2333C81.788 12.5444 82.3246 12.9566 82.776 13.4699C83.2426 13.9833 83.6 14.5588 83.8493 15.1966C84.1133 15.8344 84.246 16.4877 84.246 17.1566C84.246 17.8877 84.1133 18.5877 83.8493 19.2566C83.5846 19.9255 83.2033 20.5011 82.7059 20.9833C82.2233 21.4655 81.6559 21.8155 81.0026 22.0333L84.8993 28.3333H81.9593L78.366 22.5699H74.516V28.3333H71.9026ZM74.516 20.2599H79.0893C79.5713 20.2599 79.9993 20.1199 80.3726 19.8399C80.7459 19.5599 81.0413 19.1866 81.2593 18.7199C81.4766 18.2377 81.5859 17.7166 81.5859 17.1566C81.5859 16.5811 81.4613 16.0677 81.2126 15.6166C80.9633 15.1499 80.6366 14.7766 80.2326 14.4966C79.8433 14.2166 79.416 14.0766 78.9493 14.0766H74.516V20.2599ZM98.6919 26.0233V28.3333H87.3286V11.7666H98.482V14.0766H89.9419V18.7899H97.3386V20.9599H89.9419V26.0233H98.6919ZM106.171 11.7666H108.645L115.085 28.3333H112.331L110.581 23.8299H104.188L102.461 28.3333H99.6846L106.171 11.7666ZM110.068 21.8933L107.408 14.6366L104.655 21.8933H110.068ZM131.063 28.3333V16.5266L126.187 25.4866H124.647L119.747 16.5266V28.3333H117.133V11.7666H119.933L125.417 21.8933L130.9 11.7666H133.7V28.3333H131.063ZM209.271 28.3333V25.3466H211.395V28.3333H209.271Z" fill="white"/>
<path d="M143.316 11.8366H145.766L147.819 17.4599L149.896 11.8366H152.346L149.499 19.2099L151.973 25.2999L157.129 11.7666H159.999L153.209 28.3332H150.946L147.843 20.9132L144.716 28.3332H142.429L135.663 11.7666H138.509L143.689 25.2999L146.163 19.2099L143.316 11.8366ZM168.223 28.4499C167.025 28.4499 165.944 28.2166 164.979 27.7499C164.015 27.2832 163.183 26.6532 162.483 25.8599C161.783 25.051 161.238 24.1488 160.849 23.1532C160.476 22.1421 160.289 21.1077 160.289 20.0499C160.289 18.9454 160.491 17.8954 160.896 16.8999C161.301 15.8888 161.861 14.9944 162.576 14.2166C163.291 13.4232 164.131 12.801 165.096 12.3499C166.076 11.8832 167.134 11.6499 168.269 11.6499C169.451 11.6499 170.525 11.891 171.489 12.3732C172.469 12.8554 173.301 13.501 173.986 14.3099C174.686 15.1188 175.223 16.021 175.596 17.0166C175.985 18.0121 176.179 19.031 176.179 20.0732C176.179 21.1777 175.977 22.2354 175.573 23.2466C175.184 24.2421 174.631 25.1366 173.916 25.9299C173.201 26.7077 172.353 27.3221 171.373 27.7732C170.408 28.2244 169.358 28.4499 168.223 28.4499ZM162.949 20.0499C162.949 20.8277 163.074 21.5821 163.323 22.3132C163.571 23.0444 163.921 23.6977 164.373 24.2732C164.839 24.8332 165.399 25.2766 166.053 25.6032C166.706 25.9299 167.437 26.0932 168.246 26.0932C169.086 26.0932 169.833 25.9221 170.486 25.5799C171.139 25.2377 171.684 24.7788 172.119 24.2032C172.571 23.6121 172.913 22.9588 173.146 22.2432C173.379 21.5121 173.496 20.781 173.496 20.0499C173.496 19.2721 173.371 18.5254 173.123 17.8099C172.889 17.0788 172.539 16.4332 172.073 15.8732C171.606 15.2977 171.046 14.8466 170.393 14.5199C169.755 14.1932 169.039 14.0299 168.246 14.0299C167.406 14.0299 166.659 14.201 166.006 14.5432C165.353 14.8854 164.801 15.3444 164.349 15.9199C163.898 16.4954 163.548 17.141 163.299 17.8566C163.066 18.5721 162.949 19.3032 162.949 20.0499ZM178.885 28.3332V11.7666H186.095C186.841 11.7666 187.526 11.9221 188.148 12.2332C188.771 12.5444 189.307 12.9566 189.758 13.4699C190.225 13.9832 190.583 14.5588 190.831 15.1966C191.096 15.8344 191.228 16.4877 191.228 17.1566C191.228 17.8877 191.096 18.5877 190.831 19.2566C190.567 19.9254 190.186 20.501 189.688 20.9832C189.206 21.4654 188.638 21.8154 187.985 22.0332L191.881 28.3332H188.941L185.348 22.5699H181.498V28.3332H178.885ZM181.498 20.2599H186.071C186.554 20.2599 186.981 20.1199 187.355 19.8399C187.728 19.5599 188.024 19.1866 188.241 18.7199C188.459 18.2377 188.568 17.7166 188.568 17.1566C188.568 16.581 188.444 16.0677 188.195 15.6166C187.946 15.1499 187.619 14.7766 187.215 14.4966C186.826 14.2166 186.398 14.0766 185.931 14.0766H181.498V20.2599ZM194.311 28.3332V11.7899H196.925V20.3066L204.718 11.7666H207.611L201.078 19.0932L207.985 28.3332H205.021L199.421 20.7499L196.925 23.3399V28.3332H194.311Z" fill="#F4C361"/>
</svg>
