<svg width="20" height="20" viewBox="0 0 20 20" fill="none" xmlns="http://www.w3.org/2000/svg">
<path d="M10.02 0.833312C9.85886 0.828283 9.702 0.885723 9.58219 0.993631C9.58219 0.993631 6.45391 3.74998 2.70801 3.74998C2.54225 3.75 2.38329 3.81585 2.26608 3.93305C2.14888 4.05026 2.08302 4.20922 2.08301 4.37498V9.48321C2.08301 12.2657 3.37026 16.8443 9.75716 19.5345C9.83393 19.5668 9.91638 19.5834 9.99967 19.5834C10.083 19.5834 10.1654 19.5668 10.2422 19.5345C16.6291 16.8443 17.9163 12.2657 17.9163 9.48321V4.37498C17.9163 4.20922 17.8505 4.05026 17.7333 3.93305C17.6161 3.81585 17.4571 3.75 17.2913 3.74998C13.5454 3.74998 10.4172 0.993631 10.4172 0.993631C10.3078 0.895093 10.1671 0.838319 10.02 0.833312ZM13.1239 7.49998C13.2838 7.49998 13.4437 7.561 13.5658 7.68308C13.8099 7.92683 13.8099 8.32312 13.5658 8.56687L9.39909 12.7335C9.27784 12.8556 9.11801 12.9166 8.95801 12.9166C8.79801 12.9166 8.6382 12.8556 8.51611 12.7335L6.43278 10.6502C6.18861 10.4065 6.18861 10.0102 6.43278 9.76642C6.67695 9.52225 7.0724 9.52225 7.31657 9.76642L8.95719 11.4079L12.682 7.68308C12.804 7.561 12.964 7.49998 13.1239 7.49998Z" fill="black"/>
<path d="M10.02 0.833312C9.85886 0.828283 9.702 0.885723 9.58219 0.993631C9.58219 0.993631 6.45391 3.74998 2.70801 3.74998C2.54225 3.75 2.38329 3.81585 2.26608 3.93305C2.14888 4.05026 2.08302 4.20922 2.08301 4.37498V9.48321C2.08301 12.2657 3.37026 16.8443 9.75716 19.5345C9.83393 19.5668 9.91638 19.5834 9.99967 19.5834C10.083 19.5834 10.1654 19.5668 10.2422 19.5345C16.6291 16.8443 17.9163 12.2657 17.9163 9.48321V4.37498C17.9163 4.20922 17.8505 4.05026 17.7333 3.93305C17.6161 3.81585 17.4571 3.75 17.2913 3.74998C13.5454 3.74998 10.4172 0.993631 10.4172 0.993631C10.3078 0.895093 10.1671 0.838319 10.02 0.833312ZM13.1239 7.49998C13.2838 7.49998 13.4437 7.561 13.5658 7.68308C13.8099 7.92683 13.8099 8.32312 13.5658 8.56687L9.39909 12.7335C9.27784 12.8556 9.11801 12.9166 8.95801 12.9166C8.79801 12.9166 8.6382 12.8556 8.51611 12.7335L6.43278 10.6502C6.18861 10.4065 6.18861 10.0102 6.43278 9.76642C6.67695 9.52225 7.0724 9.52225 7.31657 9.76642L8.95719 11.4079L12.682 7.68308C12.804 7.561 12.964 7.49998 13.1239 7.49998Z" fill="#F4C361"/>
</svg>
