<svg width="180" height="94" viewBox="0 0 180 94" fill="none" xmlns="http://www.w3.org/2000/svg">
<g clip-path="url(#clip0_108_14)">
<g opacity="0.4" filter="url(#filter0_f_108_14)">
<path opacity="0.1" d="M131.764 53.0903C131.624 53.5137 131.624 54.0787 131.905 54.5021L135.574 59.1594L134.586 65.0869C134.445 65.651 134.727 66.0753 135.15 66.3569C135.573 66.6394 135.997 66.7802 136.562 66.4977L142.206 64.3811L147.57 67.0629C147.711 67.2036 147.993 67.2036 148.134 67.2036C148.416 67.2036 148.698 67.0629 148.84 66.9211C149.263 66.6386 149.404 66.2152 149.404 65.6511L148.98 59.7236L153.073 55.3488C153.355 54.9254 153.496 54.5021 153.355 54.0788C153.215 53.6555 152.791 53.2322 152.367 53.0904L146.58 51.6787L143.761 46.5979C143.478 46.1746 143.055 45.8921 142.631 45.8921C142.067 45.8921 141.643 46.1746 141.502 46.5979L138.68 51.5381L133.035 52.3847C132.47 52.2439 132.047 52.6672 131.764 53.0906V53.0903Z" fill="#F4C361"/>
<path opacity="0.5" d="M108.145 45.3398L111.814 49.9972L110.825 55.9247C110.685 56.348 110.966 56.9131 111.389 57.1947C111.813 57.4772 112.236 57.618 112.801 57.4772L118.446 55.3606L123.809 58.0424C123.95 58.1832 124.232 58.1832 124.373 58.1832C124.656 58.1832 124.937 58.0424 125.079 57.9006C125.502 57.6181 125.643 57.1948 125.643 56.6307L125.22 50.7031L129.312 46.3283C129.595 45.905 129.736 45.4817 129.595 45.0583C129.454 44.635 129.031 44.2117 128.606 44.0699L122.82 42.6582L119.858 37.4356C119.576 37.0123 119.153 36.7297 118.729 36.7297C118.306 36.7297 117.741 37.0123 117.6 37.4356L114.778 42.3757L109.133 43.2224C108.569 43.2224 108.286 43.6457 108.004 44.069C107.721 44.3515 107.862 44.9156 108.145 45.3399V45.3398Z" fill="#F4C361"/>
<path opacity="0.1" d="M30.5738 59.7935L30.1505 65.721C30.1505 66.2851 30.2913 66.7094 30.7146 66.991C30.9972 67.1317 31.2787 67.2735 31.4205 67.2735C31.5613 67.2735 31.8438 67.2735 31.9846 67.1327L37.3478 64.451L42.9926 66.5675C43.4159 66.7083 43.981 66.7083 44.4043 66.4268C44.8276 66.1442 44.9684 65.5801 44.9684 65.1568L43.98 59.2293L47.6492 54.5719C47.9317 54.1486 48.0725 53.7253 47.79 53.1602C47.6492 52.7369 47.2259 52.3136 46.6608 52.3136L41.016 51.4669L38.1936 46.5268C37.6295 45.6802 36.3586 45.6802 35.7945 46.5268L32.8303 51.7484L27.0436 53.1602C26.6203 53.3009 26.197 53.5835 26.0552 54.1486C25.9144 54.5719 26.0552 55.137 26.3377 55.4185L30.5738 59.7935Z" fill="#F4C361"/>
<path opacity="0.5" d="M54.3746 50.7731L53.9513 56.7007C53.9513 57.124 54.0921 57.6891 54.5154 57.9706C54.7979 58.1114 55.0795 58.2532 55.2213 58.2532C55.362 58.2532 55.6446 58.2532 55.7854 58.1124L61.1486 55.4306L66.7934 57.5472C67.2167 57.688 67.7818 57.688 68.2051 57.2647C68.6284 56.9821 68.7692 56.418 68.7692 55.9947L67.7808 50.0672L71.45 45.4098C71.7325 44.9865 71.8733 44.5632 71.5907 43.9981C71.45 43.5748 71.0267 43.1515 70.4616 43.1515L64.8168 42.3048L61.9944 37.3647C61.4303 36.5181 60.1594 36.5181 59.5953 37.3647L56.631 42.5863L50.8444 43.9981C50.4211 44.1388 49.9978 44.4214 49.856 44.9865C49.7152 45.4098 49.856 45.9749 50.1385 46.2564L54.3746 50.7731Z" fill="#F4C361"/>
<path d="M81.6552 43.853L81.0911 51.8981C81.0911 52.4622 81.2318 52.8865 81.6552 53.168C81.9377 53.3088 82.2193 53.4506 82.361 53.4506C82.5018 53.4506 82.7843 53.4506 82.9251 53.3098L90.2642 49.7815L97.8848 52.7458C98.3081 52.8865 98.8732 52.8865 99.2966 52.4632C99.7199 52.1807 99.8606 51.6166 99.8606 51.1933L98.5907 43.1482L103.531 36.7976C103.813 36.3743 103.954 35.9509 103.672 35.3859C103.531 34.9625 103.107 34.5392 102.542 34.5392L95.0624 33.4091L91.2526 26.635C90.6885 25.7883 89.4176 25.7883 88.8535 26.635L84.7612 33.6916L76.8581 35.5266C76.4347 35.6674 76.0114 35.9499 75.8697 36.515C75.7289 36.9383 75.8697 37.5034 76.1522 37.7849L81.6552 43.853Z" fill="#F4C361"/>
</g>
<path opacity="0.2" d="M131.764 53.0903C131.624 53.5137 131.624 54.0787 131.905 54.5021L135.574 59.1594L134.586 65.0869C134.445 65.651 134.727 66.0753 135.15 66.3569C135.573 66.6394 135.997 66.7802 136.562 66.4977L142.206 64.3811L147.57 67.0629C147.711 67.2036 147.993 67.2036 148.134 67.2036C148.416 67.2036 148.698 67.0629 148.84 66.9211C149.263 66.6386 149.404 66.2152 149.404 65.6511L148.98 59.7236L153.073 55.3488C153.355 54.9254 153.496 54.5021 153.355 54.0788C153.215 53.6555 152.791 53.2322 152.367 53.0904L146.58 51.6787L143.761 46.5979C143.478 46.1746 143.055 45.8921 142.631 45.8921C142.067 45.8921 141.643 46.1746 141.502 46.5979L138.68 51.5381L133.035 52.3847C132.47 52.2439 132.047 52.6672 131.764 53.0906V53.0903Z" fill="#D3A547"/>
<path opacity="0.5" d="M108.145 45.3398L111.814 49.9972L110.825 55.9247C110.685 56.348 110.966 56.9131 111.389 57.1947C111.813 57.4772 112.236 57.618 112.801 57.4772L118.446 55.3606L123.809 58.0424C123.95 58.1832 124.232 58.1832 124.373 58.1832C124.656 58.1832 124.937 58.0424 125.079 57.9006C125.502 57.6181 125.643 57.1948 125.643 56.6307L125.22 50.7031L129.312 46.3283C129.595 45.905 129.736 45.4817 129.595 45.0583C129.454 44.635 129.031 44.2117 128.606 44.0699L122.82 42.6582L119.858 37.4356C119.576 37.0123 119.153 36.7297 118.729 36.7297C118.306 36.7297 117.741 37.0123 117.6 37.4356L114.778 42.3757L109.133 43.2224C108.569 43.2224 108.286 43.6457 108.004 44.069C107.721 44.3515 107.862 44.9156 108.145 45.3399V45.3398Z" fill="#F4C361"/>
<path opacity="0.2" d="M30.5738 59.7935L30.1505 65.721C30.1505 66.2851 30.2913 66.7094 30.7146 66.991C30.9972 67.1317 31.2787 67.2735 31.4205 67.2735C31.5613 67.2735 31.8438 67.2735 31.9846 67.1327L37.3478 64.451L42.9926 66.5675C43.4159 66.7083 43.981 66.7083 44.4043 66.4268C44.8276 66.1442 44.9684 65.5801 44.9684 65.1568L43.98 59.2293L47.6492 54.5719C47.9317 54.1486 48.0725 53.7253 47.79 53.1602C47.6492 52.7369 47.2259 52.3136 46.6608 52.3136L41.016 51.4669L38.1936 46.5268C37.6295 45.6802 36.3586 45.6802 35.7945 46.5268L32.8303 51.7484L27.0436 53.1602C26.6203 53.3009 26.197 53.5835 26.0552 54.1486C25.9144 54.5719 26.0552 55.137 26.3377 55.4185L30.5738 59.7935Z" fill="#D3A547"/>
<path opacity="0.5" d="M54.3746 50.7731L53.9513 56.7007C53.9513 57.124 54.0921 57.6891 54.5154 57.9706C54.7979 58.1114 55.0795 58.2532 55.2213 58.2532C55.362 58.2532 55.6446 58.2532 55.7854 58.1124L61.1486 55.4306L66.7934 57.5472C67.2167 57.688 67.7818 57.688 68.2051 57.2647C68.6284 56.9821 68.7692 56.418 68.7692 55.9947L67.7808 50.0672L71.45 45.4098C71.7325 44.9865 71.8733 44.5632 71.5907 43.9981C71.45 43.5748 71.0267 43.1515 70.4616 43.1515L64.8168 42.3048L61.9944 37.3647C61.4303 36.5181 60.1594 36.5181 59.5953 37.3647L56.631 42.5863L50.8444 43.9981C50.4211 44.1388 49.9978 44.4214 49.856 44.9865C49.7152 45.4098 49.856 45.9749 50.1385 46.2564L54.3746 50.7731Z" fill="#F4C361"/>
<path d="M81.6552 43.853L81.0911 51.8981C81.0911 52.4622 81.2318 52.8865 81.6552 53.168C81.9377 53.3088 82.2193 53.4506 82.361 53.4506C82.5018 53.4506 82.7843 53.4506 82.9251 53.3098L90.2642 49.7815L97.8848 52.7458C98.3081 52.8865 98.8732 52.8865 99.2966 52.4632C99.7199 52.1807 99.8606 51.6166 99.8606 51.1933L98.5907 43.1482L103.531 36.7976C103.813 36.3743 103.954 35.9509 103.672 35.3859C103.531 34.9625 103.107 34.5392 102.542 34.5392L95.0624 33.4091L91.2526 26.635C90.6885 25.7883 89.4176 25.7883 88.8535 26.635L84.7612 33.6916L76.8581 35.5266C76.4347 35.6674 76.0114 35.9499 75.8697 36.515C75.7289 36.9383 75.8697 37.5034 76.1522 37.7849L81.6552 43.853Z" fill="#F4C361"/>
</g>
<defs>
<filter id="filter0_f_108_14" x="0" y="0" width="179.41" height="93.2734" filterUnits="userSpaceOnUse" color-interpolation-filters="sRGB">
<feFlood flood-opacity="0" result="BackgroundImageFix"/>
<feBlend mode="normal" in="SourceGraphic" in2="BackgroundImageFix" result="shape"/>
<feGaussianBlur stdDeviation="13" result="effect1_foregroundBlur_108_14"/>
</filter>
<clipPath id="clip0_108_14">
<rect width="180" height="94" fill="white"/>
</clipPath>
</defs>
</svg>
