<svg width="18" height="15" viewBox="0 0 18 15" fill="none" xmlns="http://www.w3.org/2000/svg">
<path d="M1.14671 6.08987C6.38338 3.78612 13.16 0.977367 14.0955 0.588617C16.5492 -0.428883 17.3021 -0.233883 16.9267 2.01945C16.6571 3.63903 15.8792 9.00112 15.2592 12.3386C14.8913 14.3178 14.0659 14.5524 12.768 13.6961C12.1438 13.284 8.99338 11.2007 8.30963 10.7115C7.68546 10.2657 6.82463 9.72945 7.90421 8.6732C8.28838 8.29695 10.8067 5.89237 12.7688 4.0207C13.0259 3.77487 12.703 3.37112 12.4063 3.5682C9.76171 5.32195 6.09504 7.75612 5.62838 8.0732C4.92338 8.55195 4.24629 8.77153 3.03088 8.42237C2.11254 8.15862 1.21546 7.84403 0.866294 7.72403C-0.478289 7.26237 -0.159123 6.66445 1.14671 6.08987Z" fill="#F4C361"/>
</svg>
