<svg width="290" height="187" viewBox="0 0 290 187" fill="none" xmlns="http://www.w3.org/2000/svg">
<path opacity="0.05" d="M79.6 186.56C66.8 186.389 55.4507 183.488 45.552 177.856C35.6533 172.224 27.376 164.8 20.72 155.584C14.064 146.368 9.02933 136.469 5.616 125.888C2.37333 115.136 0.752001 104.64 0.752001 94.4C0.752001 83.4773 2.544 72.5547 6.128 61.632C9.712 50.7093 14.9173 40.8107 21.744 31.936C28.7413 22.8907 37.104 15.7227 46.832 10.432C56.56 4.97066 67.4827 2.23999 79.6 2.23999C92.7413 2.23999 104.176 5.14132 113.904 10.944C123.803 16.7467 132.08 24.256 138.736 33.472C145.392 42.688 150.341 52.672 153.584 63.424C156.997 74.176 158.704 84.5013 158.704 94.4C158.704 105.493 156.912 116.501 153.328 127.424C149.744 138.176 144.453 147.989 137.456 156.864C130.629 165.739 122.352 172.907 112.624 178.368C102.896 183.659 91.888 186.389 79.6 186.56ZM36.336 94.4C36.5067 101.568 37.4453 108.736 39.152 115.904C41.0293 122.901 43.6747 129.387 47.088 135.36C50.672 141.333 55.1947 146.197 60.656 149.952C66.1173 153.536 72.432 155.328 79.6 155.328C87.28 155.328 93.8507 153.365 99.312 149.44C104.773 145.515 109.211 140.48 112.624 134.336C116.208 128.192 118.853 121.621 120.56 114.624C122.267 107.627 123.12 100.885 123.12 94.4C123.12 87.232 122.181 80.1493 120.304 73.152C118.597 65.984 115.867 59.4133 112.112 53.44C108.528 47.4667 104.005 42.688 98.544 39.104C93.2533 35.3493 86.9387 33.472 79.6 33.472C72.0907 33.472 65.6053 35.4347 60.144 39.36C54.6827 43.2853 50.16 48.32 46.576 54.464C43.1627 60.608 40.6027 67.1787 38.896 74.176C37.1893 81.1733 36.336 87.9147 36.336 94.4ZM289.308 153.024V184H186.396V153.024H221.724V34.752C220.359 36.8 218.055 39.104 214.812 41.664C211.74 44.0533 208.156 46.4427 204.06 48.832C200.135 51.0507 196.039 52.928 191.772 54.464C187.676 56 183.921 56.768 180.508 56.768V25.024C185.116 25.024 189.809 23.8293 194.588 21.44C199.367 19.0507 203.804 16.32 207.9 13.248C211.996 10.176 215.239 7.35999 217.628 4.79999C220.188 2.06933 221.553 0.618663 221.724 0.447998H256.796V153.024H289.308Z" fill="white"/>
</svg>
