<svg width="312" height="188" viewBox="0 0 312 188" fill="none" xmlns="http://www.w3.org/2000/svg">
<path opacity="0.05" d="M79.35 187.56C66.55 187.389 55.2007 184.488 45.302 178.856C35.4033 173.224 27.126 165.8 20.47 156.584C13.814 147.368 8.77933 137.469 5.366 126.888C2.12333 116.136 0.502001 105.64 0.502001 95.4C0.502001 84.4773 2.294 73.5547 5.878 62.632C9.462 51.7093 14.6673 41.8107 21.494 32.936C28.4913 23.8907 36.854 16.7227 46.582 11.432C56.31 5.97066 67.2327 3.23999 79.35 3.23999C92.4913 3.23999 103.926 6.14132 113.654 11.944C123.553 17.7467 131.83 25.256 138.486 34.472C145.142 43.688 150.091 53.672 153.334 64.424C156.747 75.176 158.454 85.5013 158.454 95.4C158.454 106.493 156.662 117.501 153.078 128.424C149.494 139.176 144.203 148.989 137.206 157.864C130.379 166.739 122.102 173.907 112.374 179.368C102.646 184.659 91.638 187.389 79.35 187.56ZM36.086 95.4C36.2567 102.568 37.1953 109.736 38.902 116.904C40.7793 123.901 43.4247 130.387 46.838 136.36C50.422 142.333 54.9447 147.197 60.406 150.952C65.8673 154.536 72.182 156.328 79.35 156.328C87.03 156.328 93.6007 154.365 99.062 150.44C104.523 146.515 108.961 141.48 112.374 135.336C115.958 129.192 118.603 122.621 120.31 115.624C122.017 108.627 122.87 101.885 122.87 95.4C122.87 88.232 121.931 81.1493 120.054 74.152C118.347 66.984 115.617 60.4133 111.862 54.44C108.278 48.4667 103.755 43.688 98.294 40.104C93.0033 36.3493 86.6887 34.472 79.35 34.472C71.8407 34.472 65.3553 36.4347 59.894 40.36C54.4327 44.2853 49.91 49.32 46.326 55.464C42.9127 61.608 40.3527 68.1787 38.646 75.176C36.9393 82.1733 36.086 88.9147 36.086 95.4ZM179.746 185C179.746 174.589 180.429 165.459 181.794 157.608C183.159 149.587 185.293 142.504 188.194 136.36C191.266 130.045 195.191 124.499 199.97 119.72C204.749 114.941 210.637 110.419 217.634 106.152C223.607 102.739 229.751 99.4107 236.066 96.168C242.551 92.9253 248.525 89.512 253.986 85.928C259.618 82.344 264.141 78.248 267.554 73.64C271.138 69.032 272.93 63.4 272.93 56.744C272.93 51.624 271.821 47.272 269.602 43.688C267.554 39.9333 264.482 37.032 260.386 34.984C256.461 32.936 251.682 31.912 246.05 31.912C239.565 31.912 233.506 33.1067 227.874 35.496C222.413 37.7147 217.463 40.5307 213.026 43.944C208.759 47.1867 205.09 50.4293 202.018 53.672L180.514 31.144C182.903 28.4133 186.146 25.3413 190.242 21.928C194.509 18.5147 199.543 15.1867 205.346 11.944C211.319 8.70132 218.061 6.05599 225.57 4.008C233.079 1.95999 241.357 0.935989 250.402 0.935989C263.714 0.935989 274.893 3.32532 283.938 8.10399C292.983 12.712 299.81 19.112 304.418 27.304C309.197 35.3253 311.586 44.6267 311.586 55.208C311.586 62.888 310.306 69.7147 307.746 75.688C305.357 81.4907 302.029 86.6107 297.762 91.048C293.495 95.4853 288.717 99.496 283.426 103.08C278.135 106.493 272.674 109.821 267.042 113.064C258.167 117.843 250.999 122.024 245.538 125.608C240.077 129.192 235.725 132.52 232.482 135.592C229.41 138.664 227.021 141.736 225.314 144.808C223.778 147.709 222.413 150.781 221.218 154.024H311.842V185H179.746Z" fill="white"/>
</svg>
