<svg width="308" height="188" viewBox="0 0 308 188" fill="none" xmlns="http://www.w3.org/2000/svg">
<path opacity="0.05" d="M79.35 187.56C66.55 187.389 55.2007 184.488 45.302 178.856C35.4033 173.224 27.126 165.8 20.47 156.584C13.814 147.368 8.77933 137.469 5.366 126.888C2.12333 116.136 0.502001 105.64 0.502001 95.4C0.502001 84.4773 2.294 73.5547 5.878 62.632C9.462 51.7093 14.6673 41.8107 21.494 32.936C28.4913 23.8907 36.854 16.7227 46.582 11.432C56.31 5.97066 67.2327 3.23999 79.35 3.23999C92.4913 3.23999 103.926 6.14132 113.654 11.944C123.553 17.7467 131.83 25.256 138.486 34.472C145.142 43.688 150.091 53.672 153.334 64.424C156.747 75.176 158.454 85.5013 158.454 95.4C158.454 106.493 156.662 117.501 153.078 128.424C149.494 139.176 144.203 148.989 137.206 157.864C130.379 166.739 122.102 173.907 112.374 179.368C102.646 184.659 91.638 187.389 79.35 187.56ZM36.086 95.4C36.2567 102.568 37.1953 109.736 38.902 116.904C40.7793 123.901 43.4247 130.387 46.838 136.36C50.422 142.333 54.9447 147.197 60.406 150.952C65.8673 154.536 72.182 156.328 79.35 156.328C87.03 156.328 93.6007 154.365 99.062 150.44C104.523 146.515 108.961 141.48 112.374 135.336C115.958 129.192 118.603 122.621 120.31 115.624C122.017 108.627 122.87 101.885 122.87 95.4C122.87 88.232 121.931 81.1493 120.054 74.152C118.347 66.984 115.617 60.4133 111.862 54.44C108.278 48.4667 103.755 43.688 98.294 40.104C93.0033 36.3493 86.6887 34.472 79.35 34.472C71.8407 34.472 65.3553 36.4347 59.894 40.36C54.4327 44.2853 49.91 49.32 46.326 55.464C42.9127 61.608 40.3527 68.1787 38.646 75.176C36.9393 82.1733 36.086 88.9147 36.086 95.4ZM238.882 186.792C229.154 186.792 220.279 185.597 212.258 183.208C204.407 180.648 197.495 177.064 191.522 172.456C185.719 167.677 181.111 162.045 177.698 155.56L196.13 132.264C197.837 136.019 200.567 139.688 204.322 143.272C208.077 146.856 212.77 149.757 218.402 151.976C224.034 154.195 230.434 155.304 237.602 155.304C244.599 155.304 250.658 154.28 255.778 152.232C260.898 150.184 264.823 147.368 267.554 143.784C270.455 140.029 271.906 135.507 271.906 130.216C271.906 124.584 270.114 119.805 266.53 115.88C263.117 111.955 257.997 108.968 251.17 106.92C244.343 104.872 235.981 103.848 226.082 103.848H217.634V78.248H226.594C238.882 78.248 248.695 76.1147 256.034 71.848C263.543 67.5813 267.298 61.5227 267.298 53.672C267.298 48.8933 266.018 44.7973 263.458 41.384C260.898 37.8 257.485 35.1547 253.218 33.448C248.951 31.5707 244.258 30.632 239.138 30.632C230.605 30.632 223.01 32.68 216.354 36.776C209.869 40.7013 204.919 45.8213 201.506 52.136L179.234 27.304C182.989 21.8427 188.109 17.2347 194.594 13.48C201.079 9.55466 208.333 6.48266 216.354 4.26399C224.546 2.04532 232.994 0.935989 241.698 0.935989C253.815 0.935989 264.567 3.06933 273.954 7.336C283.341 11.432 290.679 17.064 295.97 24.232C301.261 31.4 303.906 39.592 303.906 48.808C303.906 55.6347 302.455 61.864 299.554 67.496C296.823 73.128 292.898 77.8213 287.778 81.576C282.658 85.3307 276.599 88.0613 269.602 89.768C277.111 90.9627 283.682 93.7787 289.314 98.216C295.117 102.483 299.554 107.944 302.626 114.6C305.869 121.085 307.49 128.168 307.49 135.848C307.49 146.6 304.418 155.731 298.274 163.24C292.301 170.749 284.109 176.552 273.698 180.648C263.458 184.744 251.853 186.792 238.882 186.792Z" fill="white"/>
</svg>
