<svg width="320" height="60" viewBox="0 0 320 60" fill="none" xmlns="http://www.w3.org/2000/svg">
<g clip-path="url(#clip0_124_5)">
<path d="M32.9917 42.6121L33.7548 42.8272L34.1382 42.1331C35.444 39.7693 37.9582 38.1699 40.8357 38.1699C45.0505 38.1699 48.4814 41.6012 48.4814 45.8161C48.4814 50.0315 45.0505 53.4624 40.8357 53.4624C36.6208 53.4624 33.1899 50.0315 33.1899 45.8161C33.1899 45.5801 33.2023 45.3435 33.2242 45.1039L33.301 44.2648L32.4871 44.0468C31.8636 43.8798 31.0149 43.7326 29.9514 43.7326C28.9496 43.7326 28.1364 43.8632 27.523 44.0187L26.6916 44.2296L26.7734 45.0834C26.7966 45.3262 26.8091 45.5703 26.8091 45.8161C26.8091 50.0315 23.3787 53.4619 19.1633 53.4619C14.9485 53.4619 11.5176 50.0314 11.5176 45.8161C11.5176 41.6008 14.9485 38.1699 19.1633 38.1699C22.0327 38.1699 24.5403 39.7604 25.849 42.1128L26.2297 42.7974L26.9855 42.5916C27.7282 42.3894 28.7202 42.2165 29.9514 42.2165C31.2242 42.2165 32.2421 42.4009 32.9917 42.6121Z" stroke="white" stroke-width="2"/>
<path d="M55.3495 26.06H49.6013C49.4741 25.3482 49.3079 24.4207 49.1221 23.3894H10.8778C10.692 24.4207 10.5258 25.3482 10.3985 26.06H4.65041C2.08648 26.06 0 28.146 0 30.7104V30.7502C0 33.3146 2.08648 35.4006 4.65041 35.4006H55.3495C57.9139 35.4006 59.9999 33.3146 59.9999 30.7502V30.7104C59.9999 28.146 57.9134 26.06 55.3495 26.06V26.06Z" fill="#F4C361"/>
<path d="M47.5703 14.9332C46.804 10.9232 45.9434 8.30024 43.8125 6.76124C41.4811 5.07668 37.8533 5.28862 35.554 7.24418C35.4107 7.36595 35.2624 7.49412 35.1095 7.62641C33.6904 8.8523 31.9249 10.3776 29.9995 10.3776C28.0742 10.3776 26.3086 8.8523 24.8895 7.62641C24.7366 7.49412 24.5883 7.36595 24.445 7.24418C22.1457 5.28862 18.5184 5.07668 16.1865 6.76124C14.0556 8.30024 13.195 10.9232 12.4287 14.9332C12.1793 16.2392 11.8474 18.0414 11.5137 19.8739H48.4853C48.1516 18.0414 47.8198 16.2392 47.5703 14.9332V14.9332Z" fill="#F4C361"/>
</g>
<path d="M82.8 42.5V17.65H91.62C94.3033 17.65 96.5433 18.21 98.34 19.33C100.137 20.4267 101.478 21.92 102.365 23.81C103.275 25.6767 103.73 27.7533 103.73 30.04C103.73 32.56 103.228 34.7533 102.225 36.62C101.245 38.4867 99.845 39.9333 98.025 40.96C96.205 41.9867 94.07 42.5 91.62 42.5H82.8ZM99.74 30.04C99.74 28.29 99.4133 26.75 98.76 25.42C98.13 24.0667 97.2083 23.0167 95.995 22.27C94.805 21.5 93.3467 21.115 91.62 21.115H86.72V39.035H91.62C93.37 39.035 94.84 38.6383 96.03 37.845C97.2433 37.0517 98.165 35.9783 98.795 34.625C99.425 33.2717 99.74 31.7433 99.74 30.04ZM107.854 42.5V17.65H118.669C119.789 17.65 120.815 17.8833 121.749 18.35C122.682 18.8167 123.487 19.435 124.164 20.205C124.864 20.975 125.4 21.8383 125.774 22.795C126.17 23.7517 126.369 24.7317 126.369 25.735C126.369 26.8317 126.17 27.8817 125.774 28.885C125.377 29.8883 124.805 30.7517 124.059 31.475C123.335 32.1983 122.484 32.7233 121.504 33.05L127.349 42.5H122.939L117.549 33.855H111.774V42.5H107.854ZM111.774 30.39H118.634C119.357 30.39 119.999 30.18 120.559 29.76C121.119 29.34 121.562 28.78 121.889 28.08C122.215 27.3567 122.379 26.575 122.379 25.735C122.379 24.8717 122.192 24.1017 121.819 23.425C121.445 22.725 120.955 22.165 120.349 21.745C119.765 21.325 119.124 21.115 118.424 21.115H111.774V30.39ZM148.038 39.035V42.5H130.993V17.65H147.723V21.115H134.913V28.185H146.008V31.44H134.913V39.035H148.038ZM159.257 17.65H162.967L172.627 42.5H168.497L165.872 35.745H156.282L153.692 42.5H149.527L159.257 17.65ZM165.102 32.84L161.112 21.955L156.982 32.84H165.102ZM196.595 42.5V24.79L189.28 38.23H186.97L179.62 24.79V42.5H175.7V17.65H179.9L188.125 32.84L196.35 17.65H200.55V42.5H196.595ZM313.907 42.5V38.02H317.092V42.5H313.907Z" fill="white"/>
<path d="M214.974 17.755H218.649L221.729 26.19L224.844 17.755H228.519L224.249 28.815L227.959 37.95L235.694 17.65H239.999L229.814 42.5H226.419L221.764 31.37L217.074 42.5H213.644L203.494 17.65H207.764L215.534 37.95L219.244 28.815L214.974 17.755ZM252.334 42.675C250.537 42.675 248.916 42.325 247.469 41.625C246.022 40.925 244.774 39.98 243.724 38.79C242.674 37.5767 241.857 36.2233 241.274 34.73C240.714 33.2133 240.434 31.6617 240.434 30.075C240.434 28.4183 240.737 26.8433 241.344 25.35C241.951 23.8333 242.791 22.4917 243.864 21.325C244.937 20.135 246.197 19.2017 247.644 18.525C249.114 17.825 250.701 17.475 252.404 17.475C254.177 17.475 255.787 17.8367 257.234 18.56C258.704 19.2833 259.952 20.2517 260.979 21.465C262.029 22.6783 262.834 24.0317 263.394 25.525C263.977 27.0183 264.269 28.5467 264.269 30.11C264.269 31.7667 263.966 33.3533 263.359 34.87C262.776 36.3633 261.947 37.705 260.874 38.895C259.801 40.0617 258.529 40.9833 257.059 41.66C255.612 42.3367 254.037 42.675 252.334 42.675ZM244.424 30.075C244.424 31.2417 244.611 32.3733 244.984 33.47C245.357 34.5667 245.882 35.5467 246.559 36.41C247.259 37.25 248.099 37.915 249.079 38.405C250.059 38.895 251.156 39.14 252.369 39.14C253.629 39.14 254.749 38.8833 255.729 38.37C256.709 37.8567 257.526 37.1683 258.179 36.305C258.856 35.4183 259.369 34.4383 259.719 33.365C260.069 32.2683 260.244 31.1717 260.244 30.075C260.244 28.9083 260.057 27.7883 259.684 26.715C259.334 25.6183 258.809 24.65 258.109 23.81C257.409 22.9467 256.569 22.27 255.589 21.78C254.632 21.29 253.559 21.045 252.369 21.045C251.109 21.045 249.989 21.3017 249.009 21.815C248.029 22.3283 247.201 23.0167 246.524 23.88C245.847 24.7433 245.322 25.7117 244.949 26.785C244.599 27.8583 244.424 28.955 244.424 30.075ZM268.327 42.5V17.65H279.142C280.262 17.65 281.289 17.8833 282.222 18.35C283.156 18.8167 283.961 19.435 284.637 20.205C285.337 20.975 285.874 21.8383 286.247 22.795C286.644 23.7517 286.842 24.7317 286.842 25.735C286.842 26.8317 286.644 27.8817 286.247 28.885C285.851 29.8883 285.279 30.7517 284.532 31.475C283.809 32.1983 282.957 32.7233 281.977 33.05L287.822 42.5H283.412L278.022 33.855H272.247V42.5H268.327ZM272.247 30.39H279.107C279.831 30.39 280.472 30.18 281.032 29.76C281.592 29.34 282.036 28.78 282.362 28.08C282.689 27.3567 282.852 26.575 282.852 25.735C282.852 24.8717 282.666 24.1017 282.292 23.425C281.919 22.725 281.429 22.165 280.822 21.745C280.239 21.325 279.597 21.115 278.897 21.115H272.247V30.39ZM291.467 42.5V17.685H295.387V30.46L307.077 17.65H311.417L301.617 28.64L311.977 42.5H307.532L299.132 31.125L295.387 35.01V42.5H291.467Z" fill="#F4C361"/>
<defs>
<clipPath id="clip0_124_5">
<rect width="60" height="60" fill="white"/>
</clipPath>
</defs>
</svg>
