<svg width="20" height="20" viewBox="0 0 20 20" fill="none" xmlns="http://www.w3.org/2000/svg">
<path d="M4.79167 0C2.1527 0 0 2.15271 0 4.79167C0 7.43063 2.1527 9.58333 4.79167 9.58333C7.43063 9.58333 9.58333 7.43063 9.58333 4.79167C9.58333 2.15271 7.43063 0 4.79167 0ZM4.79167 1.25C6.75508 1.25 8.33333 2.82825 8.33333 4.79167C8.33333 6.75508 6.75508 8.33333 4.79167 8.33333C2.82825 8.33333 1.25 6.75508 1.25 4.79167C1.25 2.82825 2.82825 1.25 4.79167 1.25ZM4.7819 2.07438C4.61628 2.07697 4.45846 2.14519 4.34311 2.26405C4.22775 2.38292 4.16429 2.54271 4.16667 2.70833V4.79167C4.1667 4.95742 4.23256 5.11637 4.34977 5.23356L5.18311 6.06689C5.2407 6.12688 5.30968 6.17476 5.38601 6.20775C5.46234 6.24074 5.54448 6.25817 5.62763 6.25902C5.71078 6.25986 5.79326 6.24411 5.87025 6.21268C5.94723 6.18125 6.01717 6.13477 6.07597 6.07597C6.13477 6.01717 6.18125 5.94723 6.21268 5.87025C6.24411 5.79326 6.25986 5.71078 6.25902 5.62763C6.25817 5.54448 6.24074 5.46234 6.20775 5.38601C6.17476 5.30968 6.12688 5.2407 6.06689 5.18311L5.41667 4.53288V2.70833C5.41787 2.62468 5.40226 2.54164 5.37078 2.46413C5.33929 2.38662 5.29257 2.31622 5.23337 2.2571C5.17418 2.19798 5.10371 2.15134 5.02616 2.11996C4.94861 2.08857 4.86555 2.07307 4.7819 2.07438ZM9.92513 2.5C10.2385 3.20042 10.4167 3.97458 10.4167 4.79167C10.4167 5.14792 10.3799 5.49542 10.3166 5.83333H17.5V5.20833C17.5 3.715 16.285 2.5 14.7917 2.5H9.92513ZM9.92513 7.08333C9.04721 9.04667 7.08125 10.4167 4.79167 10.4167C3.97458 10.4167 3.20042 10.2385 2.5 9.92513V14.7917C2.5 16.285 3.715 17.5 5.20833 17.5H14.7917C16.285 17.5 17.5 16.285 17.5 14.7917V7.08333H9.92513ZM10 9.16667C10.5754 9.16667 11.0417 9.63292 11.0417 10.2083C11.0417 10.7837 10.5754 11.25 10 11.25C9.42458 11.25 8.95833 10.7837 8.95833 10.2083C8.95833 9.63292 9.42458 9.16667 10 9.16667ZM13.5417 9.16667C14.1171 9.16667 14.5833 9.63292 14.5833 10.2083C14.5833 10.7837 14.1171 11.25 13.5417 11.25C12.9662 11.25 12.5 10.7837 12.5 10.2083C12.5 9.63292 12.9662 9.16667 13.5417 9.16667ZM6.45833 12.9167C7.03375 12.9167 7.5 13.3829 7.5 13.9583C7.5 14.5337 7.03375 15 6.45833 15C5.88292 15 5.41667 14.5337 5.41667 13.9583C5.41667 13.3829 5.88292 12.9167 6.45833 12.9167ZM10 12.9167C10.5754 12.9167 11.0417 13.3829 11.0417 13.9583C11.0417 14.5337 10.5754 15 10 15C9.42458 15 8.95833 14.5337 8.95833 13.9583C8.95833 13.3829 9.42458 12.9167 10 12.9167Z" fill="#F4C361"/>
</svg>
